<?xml version="1.0" encoding="UTF-8" standalone="no"?>
<!-- Created with Inkscape (http://www.inkscape.org/) -->

<svg
   xmlns:dc="http://purl.org/dc/elements/1.1/"
   xmlns:cc="http://creativecommons.org/ns#"
   xmlns:rdf="http://www.w3.org/1999/02/22-rdf-syntax-ns#"
   xmlns:svg="http://www.w3.org/2000/svg"
   xmlns="http://www.w3.org/2000/svg"
   xmlns:sodipodi="http://sodipodi.sourceforge.net/DTD/sodipodi-0.dtd"
   xmlns:inkscape="http://www.inkscape.org/namespaces/inkscape"
   width="40"
   height="40"
   id="svg2"
   version="1.1"
   inkscape:version="0.48.1 "
   sodipodi:docname="fire2.svg"
   inkscape:export-filename="C:\!Tower\fire2.png"
   inkscape:export-xdpi="90"
   inkscape:export-ydpi="90">
  <defs
     id="defs4" />
  <sodipodi:namedview
     id="base"
     pagecolor="#ffffff"
     bordercolor="#666666"
     borderopacity="1.0"
     inkscape:pageopacity="0.0"
     inkscape:pageshadow="2"
     inkscape:zoom="18.075"
     inkscape:cx="20"
     inkscape:cy="20"
     inkscape:document-units="px"
     inkscape:current-layer="layer1"
     showgrid="false"
     inkscape:window-width="1432"
     inkscape:window-height="912"
     inkscape:window-x="96"
     inkscape:window-y="38"
     inkscape:window-maximized="0" />
  <metadata
     id="metadata7">
    <rdf:RDF>
      <cc:Work
         rdf:about="">
        <dc:format>image/svg+xml</dc:format>
        <dc:type
           rdf:resource="http://purl.org/dc/dcmitype/StillImage" />
        <dc:title></dc:title>
      </cc:Work>
    </rdf:RDF>
  </metadata>
  <g
     inkscape:label="Layer 1"
     inkscape:groupmode="layer"
     id="layer1"
     transform="translate(0,-1012.3622)">
    <path
       sodipodi:type="arc"
       style="fill:#ff2d00;fill-opacity:1;stroke:none"
       id="path2985"
       sodipodi:cx="18.838175"
       sodipodi:cy="18.035961"
       sodipodi:rx="13.914247"
       sodipodi:ry="11.673582"
       d="m 32.752421,18.035961 c 0,6.447142 -6.22962,11.673582 -13.914246,11.673582 -7.684626,0 -13.9142467,-5.22644 -13.9142467,-11.673582 0,-6.447141 6.2296207,-11.6735819 13.9142467,-11.6735819 7.684626,0 13.914246,5.2264409 13.914246,11.6735819 z"
       transform="matrix(1.4373757,0,0,1.7132702,-7.0775349,1001.4617)" />
    <path
       sodipodi:type="arc"
       style="fill:none;stroke:#ff7a00;stroke-width:2.16022706;stroke-linecap:round;stroke-linejoin:miter;stroke-miterlimit:4;stroke-opacity:1;stroke-dasharray:none;stroke-dashoffset:0"
       id="path3797"
       sodipodi:cx="19.972338"
       sodipodi:cy="22.351315"
       sodipodi:rx="12.116182"
       sodipodi:ry="10.788382"
       d="m 32.08852,22.351315 a 12.116182,10.788382 0 1 1 -24.2323646,0 12.116182,10.788382 0 1 1 24.2323646,0 z"
       transform="matrix(1.3196755,0,0,1.482097,-6.3570043,999.23538)" />
    <path
       sodipodi:type="arc"
       style="fill:none;stroke:#ffda00;stroke-width:3.15033126000000020;stroke-linecap:round;stroke-linejoin:miter;stroke-miterlimit:4;stroke-opacity:1;stroke-dasharray:none;stroke-dashoffset:0"
       id="path3797-9"
       sodipodi:cx="19.972338"
       sodipodi:cy="22.351315"
       sodipodi:rx="12.116182"
       sodipodi:ry="10.788382"
       d="m 32.08852,22.351315 a 12.116182,10.788382 0 1 1 -24.2323646,0 12.116182,10.788382 0 1 1 24.2323646,0 z"
       transform="matrix(0.8704818,0,0,0.97761801,2.6144435,1010.5112)" />
    <path
       style="fill:none;stroke:#000000;stroke-width:1.50638258px;stroke-linecap:butt;stroke-linejoin:miter;stroke-opacity:1"
       d="m 30.728735,1048.609 c -0.137054,-0.1392 -0.274178,-0.2787 -0.41116,-0.4179 -0.01992,-0.021 -0.05924,-0.033 -0.05904,-0.06 -5.12e-4,-0.029 0.05868,-0.031 0.05817,-0.059 -3.14e-4,-0.056 -0.117032,-0.063 -0.117424,-0.1193 -5.13e-4,-0.029 0.05868,-0.031 0.05817,-0.059 -3.12e-4,-0.056 -0.11711,-0.063 -0.117494,-0.1195 -5.12e-4,-0.029 0.05867,-0.031 0.05817,-0.059 -7.9e-4,-0.06 -0.175879,-0.1197 -0.1761,-0.1791 -8.8e-4,-0.1586 0.156028,0.04 -8.67e-4,-0.1191 -0.01992,-0.02 -0.03912,-0.04 -0.05904,-0.06 -0.01991,-0.02 -0.05923,-0.033 -0.05903,-0.06 -5.11e-4,-0.029 0.05869,-0.031 0.05817,-0.059 -3.12e-4,-0.056 -0.117181,-0.063 -0.117494,-0.1194 -5.12e-4,-0.029 0.05869,-0.031 0.05817,-0.059 -5.12e-4,-0.029 -0.05924,-0.033 -0.05904,-0.06 -5.12e-4,-0.029 0.05868,-0.031 0.05817,-0.059 -5.13e-4,-0.029 -0.05923,-0.033 -0.05903,-0.06 -5.12e-4,-0.029 0.05869,-0.031 0.05817,-0.059 -7.9e-4,-0.06 -0.17595,-0.1196 -0.176314,-0.1792 -5.11e-4,-0.029 0.05868,-0.031 0.05817,-0.059 -5.11e-4,-0.029 -0.05923,-0.033 -0.05903,-0.06 -5.11e-4,-0.029 0.05869,-0.031 0.05817,-0.059 -5.11e-4,-0.029 -0.05923,-0.033 -0.05904,-0.06 -5.11e-4,-0.029 0.05869,-0.031 0.05817,-0.059 -5.11e-4,-0.029 -0.05923,-0.033 -0.05903,-0.06 -5.13e-4,-0.029 0.05868,-0.031 0.05817,-0.059 -3.13e-4,-0.056 -0.117252,-0.063 -0.117495,-0.1194 -5.12e-4,-0.029 0.05868,-0.031 0.05817,-0.059 -3.13e-4,-0.056 -0.117245,-0.063 -0.117424,-0.1193 -5.11e-4,-0.029 0.05869,-0.031 0.05817,-0.059 -5.11e-4,-0.029 -0.05923,-0.033 -0.05903,-0.06 -5.12e-4,-0.029 0.0587,-0.031 0.05818,-0.059 -5.12e-4,-0.029 -0.05924,-0.033 -0.05904,-0.06 -5.12e-4,-0.029 0.05869,-0.031 0.05817,-0.059 -5.13e-4,-0.029 -0.05923,-0.033 -0.05903,-0.06 -5.13e-4,-0.029 0.05868,-0.031 0.05817,-0.059 -3.13e-4,-0.056 -0.117182,-0.063 -0.117424,-0.1193 -5.11e-4,-0.029 0.05869,-0.031 0.05817,-0.059 -5.11e-4,-0.029 -0.05924,-0.033 -0.05904,-0.06 0.155131,-0.1576 5.28e-4,0.04 -8.67e-4,-0.1191 -3.12e-4,-0.056 0.116662,-0.062 0.116347,-0.1183 -3.13e-4,-0.056 -0.117253,-0.063 -0.117423,-0.1192 -5.13e-4,-0.029 0.05868,-0.031 0.05817,-0.059 -5.12e-4,-0.029 -0.05924,-0.033 -0.05904,-0.06 -5.13e-4,-0.029 0.05869,-0.031 0.05817,-0.059 -5.12e-4,-0.029 -0.05924,-0.033 -0.05904,-0.06 -3.13e-4,-0.056 0.116663,-0.062 0.116347,-0.1183 -5.12e-4,-0.029 -0.05924,-0.033 -0.05904,-0.06 -5.11e-4,-0.029 0.05869,-0.031 0.05817,-0.059 -3.13e-4,-0.056 -0.117182,-0.064 -0.117565,-0.1196 -5.13e-4,-0.029 0.05868,-0.031 0.05817,-0.059 -5.13e-4,-0.029 -0.05923,-0.033 -0.05903,-0.06 -5.13e-4,-0.029 0.05869,-0.031 0.05817,-0.059 -5.12e-4,-0.029 -0.05924,-0.033 -0.05904,-0.06 -3.13e-4,-0.056 0.116662,-0.062 0.116347,-0.1183 -5.12e-4,-0.029 -0.05924,-0.033 -0.05904,-0.06 -5.11e-4,-0.029 0.05869,-0.031 0.05817,-0.059 -5.11e-4,-0.029 -0.05923,-0.033 -0.05903,-0.06 -5.11e-4,-0.029 0.05867,-0.031 0.05817,-0.059 -5.11e-4,-0.029 -0.05924,-0.033 -0.05904,-0.06 -5.12e-4,-0.029 0.05869,-0.031 0.05817,-0.059 -5.12e-4,-0.029 -0.05924,-0.033 -0.05903,-0.06 -3.19e-4,-0.056 0.116662,-0.062 0.116348,-0.1181 -3.12e-4,-0.056 -0.117175,-0.063 -0.117494,-0.1195 -5.13e-4,-0.029 0.05868,-0.031 0.05817,-0.059 -5.13e-4,-0.029 -0.05924,-0.033 -0.05903,-0.06 -5.13e-4,-0.029 0.04937,-0.033 0.05817,-0.059 0.02415,-0.075 -0.02539,-0.1626 -0.0011,-0.2376 0.0089,-0.027 0.05867,-0.031 0.05817,-0.059 -5.12e-4,-0.029 -0.04987,-0.033 -0.05904,-0.06 -0.008,-0.024 -0.0095,-0.3329 -0.0017,-0.3565 0.0089,-0.027 0.05869,-0.031 0.05817,-0.059 -3.13e-4,-0.056 -0.10013,-0.067 -0.117565,-0.1195 -0.02526,-0.076 0.02354,-0.1627 -0.0011,-0.2377 -0.0085,-0.025 -0.05923,-0.033 -0.05904,-0.06 -3.19e-4,-0.056 0.116662,-0.062 0.116348,-0.1182 -7.89e-4,-0.06 -0.17595,-0.1197 -0.176241,-0.1792 -5.13e-4,-0.029 0.05868,-0.031 0.05817,-0.059 -5.13e-4,-0.029 -0.05924,-0.033 -0.05903,-0.06 -5.13e-4,-0.029 0.05867,-0.031 0.05817,-0.059 -5.13e-4,-0.029 -0.05924,-0.033 -0.05904,-0.06 -5.12e-4,-0.029 0.05868,-0.031 0.05817,-0.059 -5.13e-4,-0.029 -0.05059,-0.034 -0.05904,-0.06 -0.0019,-0.3942 0.02805,0.084 -0.05933,-0.1786 -0.04039,-0.1201 0.03832,-0.1183 -0.0011,-0.2376 -0.0085,-0.025 -0.05923,-0.033 -0.05903,-0.06 -5.12e-4,-0.029 0.05868,-0.031 0.05817,-0.059 -0.0012,-0.246 -0.175396,0.1957 -0.05934,-0.1785 0.0089,-0.027 0.05869,-0.031 0.05817,-0.059 -7.89e-4,-0.06 -0.175879,-0.1196 -0.176312,-0.1791 -5.13e-4,-0.029 0.05868,-0.031 0.05817,-0.059 -5.13e-4,-0.029 -0.05924,-0.033 -0.05904,-0.06 -5.12e-4,-0.029 0.05868,-0.031 0.05817,-0.059 -3.13e-4,-0.056 -0.117245,-0.063 -0.117423,-0.1193 -5.12e-4,-0.029 0.05868,-0.031 0.05817,-0.059 -7.9e-4,-0.06 -0.17595,-0.1198 -0.176312,-0.1793 -5.13e-4,-0.029 0.05868,-0.031 0.05817,-0.059 -5.12e-4,-0.029 -0.03912,-0.04 -0.05904,-0.06 -0.09787,-0.099 -0.195801,-0.1989 -0.293737,-0.2985 -0.01991,-0.021 -0.05923,-0.033 -0.05903,-0.06 -5.12e-4,-0.029 0.05868,-0.031 0.05817,-0.059 2.71e-4,-0.032 -0.218829,-0.1903 -0.23506,-0.2389 -0.01333,-0.039 0.01177,-0.082 -8.67e-4,-0.1191 -0.02115,-0.062 -0.29346,-0.2568 -0.293737,-0.2986 -5.13e-4,-0.029 0.05868,-0.031 0.05817,-0.059 0.0019,0 -0.161876,-0.1645 -0.176101,-0.179 -0.234917,-0.2387 -0.469906,-0.4776 -0.704896,-0.7164 -0.01991,-0.021 -0.03912,-0.04 -0.05903,-0.06 -0.01991,-0.02 -0.0318,-0.06 -0.05904,-0.06 -0.02793,-5e-4 -0.03023,0.059 -0.05817,0.059 -0.02793,-5e-4 -0.03912,-0.04 -0.05904,-0.06 -0.01991,-0.02 -0.03912,-0.04 -0.05903,-0.06 -0.01422,-0.014 -0.172472,-0.1793 -0.17617,-0.1792 -0.02794,-5e-4 -0.03023,0.059 -0.05817,0.059 -0.0023,0 -0.213439,-0.217 -0.23499,-0.2388 -0.02205,-0.023 -0.230295,-0.2388 -0.234917,-0.2388 -0.02793,-6e-4 -0.03023,0.059 -0.05817,0.059 -0.05896,-9e-4 -0.117716,-0.1789 -0.176172,-0.1792 -0.02794,-5e-4 -0.03023,0.059 -0.05817,0.059 -0.05895,-8e-4 -0.117856,-0.1789 -0.17617,-0.1791 -0.02793,-5e-4 -0.03023,0.059 -0.05817,0.059 -0.02793,-5e-4 -0.03181,-0.06 -0.05904,-0.06 -0.02794,-5e-4 -0.03023,0.059 -0.05817,0.059 -0.03228,-5e-4 -0.18721,-0.2223 -0.23499,-0.2389 -0.03787,-0.013 -0.08004,0.012 -0.117204,-8e-4 -0.05219,-0.017 -0.0624,-0.1193 -0.117495,-0.1195 -0.02794,-5e-4 -0.03023,0.059 -0.05817,0.059 -0.02794,-5e-4 -0.0318,-0.06 -0.05903,-0.06 -0.02793,-5e-4 -0.03023,0.059 -0.05817,0.059 -0.05516,-3e-4 -0.06226,-0.119 -0.117423,-0.1193 -0.02793,-5e-4 -0.03023,0.059 -0.05817,0.059 -0.05516,-3e-4 -0.06226,-0.119 -0.117495,-0.1194 -0.02794,-5e-4 -0.03023,0.059 -0.05817,0.059 -0.02794,-6e-4 -0.03263,-0.051 -0.05903,-0.06 -0.03715,-0.013 -0.08005,0.012 -0.117197,-8e-4 -0.02569,-0.01 -0.0318,-0.06 -0.05904,-0.06 -0.02794,-5e-4 -0.03023,0.059 -0.05817,0.059 -0.02793,-5e-4 -0.0318,-0.06 -0.05904,-0.06 -0.05516,-3e-4 -0.06118,0.1186 -0.116348,0.1183 -0.05516,-4e-4 -0.06234,-0.1191 -0.117424,-0.1193 -0.02793,-5e-4 -0.03023,0.059 -0.05817,0.059 -0.02794,-5e-4 -0.03181,-0.06 -0.05904,-0.06 -0.02794,-5e-4 -0.03023,0.059 -0.05817,0.059 -0.02794,-5e-4 -0.03181,-0.06 -0.05903,-0.06 -0.155128,0.1577 0.0393,6e-4 -0.117195,-9e-4 -0.02794,-5e-4 -0.03825,0.08 -0.05817,0.059 -0.01991,-0.02 0.03023,-0.059 0.05817,-0.059 0.02793,6e-4 0.03181,0.06 0.05903,0.06 0.02795,5e-4 0.03023,-0.059 0.05817,-0.059 0.02795,5e-4 0.03181,0.06 0.05904,0.06 0.156019,9e-4 -0.03977,-0.1587 0.117197,9e-4 0.156612,0.1592 -0.03931,-5e-4 0.117196,9e-4 0.02793,6e-4 0.03181,0.06 0.05903,0.06 0.02795,6e-4 0.03023,-0.059 0.05817,-0.059 0.05516,3e-4 0.06247,0.1192 0.117495,0.1193 0.02793,5e-4 0.03023,-0.059 0.05817,-0.059 0.02793,5e-4 0.03181,0.06 0.05903,0.06 0.02794,6e-4 0.03023,-0.059 0.05817,-0.059 0.05516,3e-4 0.06226,0.1191 0.117495,0.1195 0.02793,5e-4 0.03023,-0.059 0.05817,-0.059 0.241912,0 -0.192465,0.1781 0.175589,0.06 0.155129,-0.1578 -0.03931,-6e-4 0.117196,8e-4 0.02794,5e-4 0.03023,-0.059 0.05817,-0.059 0.05516,3e-4 0.06248,0.1193 0.117494,0.1195 0.02793,5e-4 0.03023,-0.059 0.05817,-0.059 0.05895,9e-4 0.117857,0.1789 0.176313,0.1792 0.02794,5e-4 0.03023,-0.059 0.05817,-0.059 0.05516,4e-4 0.06233,0.1192 0.117424,0.1195 0.155129,-0.1577 -0.03931,-5e-4 0.117196,9e-4 0.02793,5e-4 0.03023,-0.059 0.05817,-0.059 0.02793,5e-4 0.03181,0.06 0.05903,0.06 0.02794,5e-4 0.03023,-0.059 0.05817,-0.059 0.05896,8e-4 0.117715,0.1787 0.176242,0.1791 0.02794,5e-4 0.03023,-0.059 0.05817,-0.059 0.02794,6e-4 0.03181,0.06 0.05903,0.06 0.02793,5e-4 0.0323,-0.05 0.05817,-0.059 0.364364,-0.1218 -0.06219,0.063 0.175587,0.06 0.02793,5e-4 0.03023,-0.059 0.05817,-0.059 0.02793,5e-4 0.0318,0.06 0.05904,0.06 0.02794,5e-4 0.03023,-0.059 0.05817,-0.059 0.02794,5e-4 0.03181,0.06 0.05903,0.06 0.02794,5e-4 0.03023,-0.059 0.05817,-0.059 0.02794,6e-4 0.03335,0.051 0.05904,0.06 0.03644,0.012 0.08005,-0.012 0.117196,9e-4 0.02569,0.01 0.03181,0.06 0.05904,0.06 0.02794,6e-4 0.03023,-0.059 0.05817,-0.059 0.05516,3e-4 0.06233,0.1192 0.117495,0.1195 0.02793,5e-4 0.03023,-0.059 0.05817,-0.059 0.02793,5e-4 0.03262,0.051 0.05904,0.06 0.03715,0.013 0.08004,-0.012 0.117196,8e-4 0.02569,0.01 0.0318,0.06 0.05903,0.06 0.02795,5e-4 0.03023,-0.059 0.05817,-0.059 0.02795,6e-4 0.0318,0.06 0.05904,0.06 0.02793,5e-4 0.03023,-0.059 0.05817,-0.059 0.02793,5e-4 0.0318,0.06 0.05904,0.06 0.02794,5e-4 0.03024,-0.059 0.05817,-0.059 0.02794,5e-4 0.0318,0.06 0.05903,0.06 0.155944,9e-4 -0.03969,-0.1586 0.117203,9e-4 0.15647,0.159 -0.0393,-6e-4 0.117196,9e-4 0.02793,5e-4 0.0318,0.06 0.05903,0.06 0.02794,5e-4 0.03023,-0.059 0.05817,-0.059 0.02794,5e-4 0.03263,0.051 0.05904,0.06 0.03715,0.012 0.08005,-0.012 0.117196,9e-4 0.02641,0.01 0.0318,0.06 0.05903,0.06 0.02793,5e-4 0.03022,-0.059 0.05817,-0.059 0.05516,3e-4 0.06247,0.1192 0.117495,0.1194 0.02794,5e-4 0.03023,-0.059 0.05817,-0.059 0.02794,5e-4 0.0318,0.06 0.05903,0.06 0.02794,5e-4 0.03023,-0.059 0.05817,-0.059 0.05516,3e-4 0.06234,0.1192 0.117494,0.1196 0.05516,3e-4 0.06118,-0.1186 0.116348,-0.1183 0.05895,8e-4 0.117715,0.1786 0.176171,0.1789 0.02793,6e-4 0.03023,-0.059 0.05817,-0.059 0.05516,3e-4 0.06234,0.1191 0.117566,0.1195 0.05516,3e-4 0.06118,-0.1186 0.116348,-0.1182 0.05516,3e-4 0.06219,0.1189 0.117424,0.1193 0.02793,5e-4 0.03023,-0.059 0.05817,-0.059 0.05516,3e-4 0.06226,0.1191 0.117494,0.1194 0.02794,6e-4 0.03023,-0.059 0.05817,-0.059 0.02821,2e-4 0.206846,0.2387 0.234919,0.2388 0.02793,5e-4 0.03023,-0.059 0.05817,-0.059 0.02793,5e-4 0.0318,0.06 0.05903,0.06 0.02795,5e-4 0.03023,-0.059 0.05817,-0.059 0.05896,9e-4 0.117859,0.179 0.176314,0.1793 0.02793,5e-4 0.03023,-0.059 0.05817,-0.059 0.02793,5e-4 0.03181,0.06 0.05904,0.06 0.02794,6e-4 0.03023,-0.059 0.05817,-0.059 0.02821,3e-4 0.206846,0.2387 0.234989,0.2389 0.02794,6e-4 0.03023,-0.059 0.05817,-0.059 0.02821,3e-4 0.206846,0.2387 0.234919,0.2388 0.02793,5e-4 0.03023,-0.059 0.05817,-0.059 0.0023,0 0.213368,0.2168 0.234917,0.2387 0.02205,0.022 0.230295,0.2388 0.23499,0.2388 0.02794,6e-4 0.03023,-0.059 0.05817,-0.059 0.02793,5e-4 0.03912,0.04 0.05903,0.06 0.01992,0.02 0.03912,0.04 0.05904,0.06 0.176171,0.1791 0.352413,0.3583 0.528584,0.5372 0.01422,0.014 0.176171,0.1753 0.176171,0.1792 5.12e-4,0.029 -0.05868,0.031 -0.05817,0.059 3.12e-4,0.056 0.117182,0.064 0.117494,0.1195 5.11e-4,0.029 -0.05869,0.031 -0.05817,0.059 2.06e-4,0.042 0.273154,0.2368 0.293666,0.2985 0.01263,0.038 -0.01176,0.082 8.67e-4,0.1191 0.01193,0.036 0.176042,0.1547 0.1761,0.179 5.13e-4,0.029 -0.05869,0.031 -0.05817,0.059 5.13e-4,0.029 0.03912,0.04 0.05904,0.06 0.01992,0.021 0.03912,0.04 0.05903,0.06 0.117495,0.1194 0.234919,0.2389 0.352414,0.3583 0.02702,0.028 0.149485,0.1698 0.176311,0.1791 0.03644,0.012 0.08005,-0.012 0.117197,9e-4 0.02733,0.01 0.149714,0.1522 0.1761,0.179 0.156684,0.1593 0.313367,0.3185 0.469837,0.4776 0.09801,0.1002 0.195871,0.1991 0.293736,0.2986 0.01992,0.021 0.03181,0.06 0.05904,0.06 0.02794,6e-4 0.03023,-0.059 0.05817,-0.059 0.05895,8e-4 0.117786,0.1789 0.176242,0.1791 0.02794,6e-4 0.03023,-0.059 0.05817,-0.059 0.05516,3e-4 0.06233,0.1191 0.117424,0.1194 0.02794,6e-4 0.0323,-0.05 0.05817,-0.059 0.364364,-0.1218 -0.06219,0.063 0.175659,0.06 0.02794,5e-4 0.03023,-0.059 0.05817,-0.059 0.05516,3e-4 0.06233,0.1191 0.117423,0.1193 0.02794,5e-4 0.0323,-0.05 0.05817,-0.059 0.03662,-0.012 0.07989,0.013 0.117196,9e-4 0.02589,-0.01 0.03825,-0.08 0.05817,-0.059 0.01991,0.02 -0.07757,0.079 -0.05817,0.059 0.03877,-0.04 0.06459,-0.1002 0.116347,-0.1183 0.05176,-0.018 0.0624,0.1192 0.117424,0.1193 0.02793,6e-4 0.03023,-0.059 0.05817,-0.059 0.02793,5e-4 0.03181,0.06 0.05903,0.06 0.02793,6e-4 0.03024,-0.059 0.05817,-0.059 0.155162,0 -0.03793,0.1585 0.117203,8e-4"
       id="path3761"
       inkscape:connector-curvature="0" />
    <path
       style="fill:none;stroke:#000000;stroke-width:1.50638258px;stroke-linecap:butt;stroke-linejoin:miter;stroke-opacity:1"
       d="m 9.2714513,1016.1377 c 0.137054,0.1392 0.274178,0.2787 0.41116,0.4179 0.01992,0.021 0.05924,0.033 0.05904,0.06 5.12e-4,0.029 -0.05868,0.031 -0.05817,0.059 3.14e-4,0.056 0.117032,0.063 0.117424,0.1193 5.13e-4,0.029 -0.05868,0.031 -0.05817,0.059 3.12e-4,0.056 0.11711,0.063 0.117494,0.1195 5.12e-4,0.029 -0.05867,0.031 -0.05817,0.059 7.9e-4,0.06 0.175879,0.1197 0.1761,0.1791 8.8e-4,0.1586 -0.156028,-0.04 8.67e-4,0.1191 0.01992,0.02 0.03912,0.04 0.05904,0.06 0.01991,0.02 0.05923,0.033 0.05903,0.06 5.11e-4,0.029 -0.05869,0.031 -0.05817,0.059 3.12e-4,0.056 0.117181,0.063 0.117494,0.1194 5.12e-4,0.029 -0.05869,0.031 -0.05817,0.059 5.12e-4,0.029 0.05924,0.033 0.05904,0.06 5.12e-4,0.029 -0.05868,0.031 -0.05817,0.059 5.13e-4,0.029 0.05923,0.033 0.05903,0.06 5.12e-4,0.029 -0.05869,0.031 -0.05817,0.059 7.9e-4,0.06 0.17595,0.1196 0.176314,0.1792 5.11e-4,0.029 -0.05868,0.031 -0.05817,0.059 5.11e-4,0.029 0.05923,0.033 0.05903,0.06 5.11e-4,0.029 -0.05869,0.031 -0.05817,0.059 5.11e-4,0.029 0.05923,0.033 0.05904,0.06 5.11e-4,0.029 -0.05869,0.031 -0.05817,0.059 5.11e-4,0.029 0.05923,0.033 0.05903,0.06 5.13e-4,0.029 -0.05868,0.031 -0.05817,0.059 3.13e-4,0.056 0.117252,0.063 0.117495,0.1194 5.12e-4,0.029 -0.05868,0.031 -0.05817,0.059 3.13e-4,0.056 0.117245,0.063 0.117424,0.1193 5.11e-4,0.029 -0.05869,0.031 -0.05817,0.059 5.11e-4,0.029 0.05923,0.033 0.05903,0.06 5.12e-4,0.029 -0.0587,0.031 -0.05818,0.059 5.12e-4,0.029 0.05924,0.033 0.05904,0.06 5.12e-4,0.029 -0.05869,0.031 -0.05817,0.059 5.13e-4,0.029 0.05923,0.033 0.05903,0.06 5.13e-4,0.029 -0.05868,0.031 -0.05817,0.059 3.13e-4,0.056 0.117182,0.063 0.117424,0.1193 5.11e-4,0.029 -0.05869,0.031 -0.05817,0.059 5.11e-4,0.029 0.05924,0.033 0.05904,0.06 -0.155131,0.1576 -5.28e-4,-0.04 8.67e-4,0.1191 3.12e-4,0.056 -0.116662,0.062 -0.116347,0.1183 3.13e-4,0.056 0.117253,0.063 0.117423,0.1192 5.13e-4,0.029 -0.05868,0.031 -0.05817,0.059 5.12e-4,0.029 0.05924,0.033 0.05904,0.06 5.13e-4,0.029 -0.05869,0.031 -0.05817,0.059 5.12e-4,0.029 0.05924,0.033 0.05904,0.06 3.13e-4,0.056 -0.116663,0.062 -0.116347,0.1183 5.12e-4,0.029 0.05924,0.033 0.05904,0.06 5.11e-4,0.029 -0.05869,0.031 -0.05817,0.059 3.13e-4,0.056 0.117182,0.064 0.117565,0.1196 5.13e-4,0.029 -0.05868,0.031 -0.05817,0.059 5.13e-4,0.029 0.05923,0.033 0.05903,0.06 5.13e-4,0.029 -0.05869,0.031 -0.05817,0.059 5.12e-4,0.029 0.05924,0.033 0.05904,0.06 3.13e-4,0.056 -0.116662,0.062 -0.116347,0.1183 5.12e-4,0.029 0.05924,0.033 0.05904,0.06 5.11e-4,0.029 -0.05869,0.031 -0.05817,0.059 5.11e-4,0.029 0.05923,0.033 0.05903,0.06 5.11e-4,0.029 -0.05867,0.031 -0.05817,0.059 5.11e-4,0.029 0.05924,0.033 0.05904,0.06 5.12e-4,0.029 -0.05869,0.031 -0.05817,0.059 5.12e-4,0.029 0.05924,0.033 0.05903,0.06 3.19e-4,0.056 -0.116662,0.062 -0.116348,0.1181 3.12e-4,0.056 0.117175,0.063 0.117494,0.1195 5.13e-4,0.029 -0.05868,0.031 -0.05817,0.059 5.13e-4,0.029 0.05924,0.033 0.05903,0.06 5.13e-4,0.029 -0.04937,0.033 -0.05817,0.059 -0.02415,0.075 0.02539,0.1626 0.0011,0.2376 -0.0089,0.027 -0.05867,0.031 -0.05817,0.059 5.12e-4,0.029 0.04987,0.033 0.05904,0.06 0.008,0.024 0.0095,0.3329 0.0017,0.3565 -0.0089,0.027 -0.05869,0.031 -0.05817,0.059 3.13e-4,0.056 0.10013,0.067 0.117565,0.1195 0.02526,0.076 -0.02354,0.1627 0.0011,0.2377 0.0085,0.025 0.05923,0.033 0.05904,0.06 3.19e-4,0.056 -0.116662,0.062 -0.116348,0.1182 7.89e-4,0.06 0.17595,0.1197 0.176241,0.1792 5.13e-4,0.029 -0.05868,0.031 -0.05817,0.059 5.13e-4,0.029 0.05924,0.033 0.05903,0.06 5.13e-4,0.029 -0.05867,0.031 -0.05817,0.059 5.13e-4,0.029 0.05924,0.033 0.05904,0.06 5.12e-4,0.029 -0.05868,0.031 -0.05817,0.059 5.13e-4,0.029 0.05059,0.034 0.05904,0.06 0.0019,0.3942 -0.02805,-0.084 0.05933,0.1786 0.04039,0.1201 -0.03832,0.1183 0.0011,0.2376 0.0085,0.025 0.05923,0.033 0.05903,0.06 5.12e-4,0.029 -0.05868,0.031 -0.05817,0.059 0.0012,0.246 0.175396,-0.1957 0.05934,0.1785 -0.0089,0.027 -0.05869,0.031 -0.05817,0.059 7.89e-4,0.06 0.175879,0.1196 0.176312,0.1791 5.13e-4,0.029 -0.05868,0.031 -0.05817,0.059 5.13e-4,0.029 0.05924,0.033 0.05904,0.06 5.12e-4,0.029 -0.05868,0.031 -0.05817,0.059 3.13e-4,0.056 0.117245,0.063 0.117423,0.1193 5.12e-4,0.029 -0.05868,0.031 -0.05817,0.059 7.9e-4,0.06 0.17595,0.1198 0.176312,0.1793 5.13e-4,0.029 -0.05868,0.031 -0.05817,0.059 5.12e-4,0.029 0.03912,0.04 0.05904,0.06 0.09787,0.099 0.195801,0.1989 0.293737,0.2985 0.01991,0.021 0.05923,0.033 0.05903,0.06 5.12e-4,0.029 -0.05868,0.031 -0.05817,0.059 -2.71e-4,0.032 0.218829,0.1903 0.23506,0.2389 0.01333,0.039 -0.01177,0.082 8.67e-4,0.1191 0.02115,0.062 0.29346,0.2568 0.293737,0.2986 5.13e-4,0.029 -0.05868,0.031 -0.05817,0.059 -0.0019,0 0.161876,0.1645 0.176101,0.179 0.234917,0.2387 0.469906,0.4776 0.704896,0.7164 0.01991,0.021 0.03912,0.04 0.05903,0.06 0.01991,0.02 0.0318,0.06 0.05904,0.06 0.02793,5e-4 0.03023,-0.059 0.05817,-0.059 0.02793,5e-4 0.03912,0.04 0.05904,0.06 0.01991,0.02 0.03912,0.04 0.05903,0.06 0.01422,0.014 0.172472,0.1793 0.17617,0.1792 0.02794,5e-4 0.03023,-0.059 0.05817,-0.059 0.0023,0 0.213439,0.217 0.23499,0.2388 0.02205,0.023 0.230295,0.2388 0.234917,0.2388 0.02793,6e-4 0.03023,-0.059 0.05817,-0.059 0.05896,9e-4 0.117716,0.1789 0.176172,0.1792 0.02794,5e-4 0.03023,-0.059 0.05817,-0.059 0.05895,8e-4 0.117856,0.1789 0.17617,0.1791 0.02793,5e-4 0.03023,-0.059 0.05817,-0.059 0.02793,5e-4 0.03181,0.06 0.05904,0.06 0.02794,5e-4 0.03023,-0.059 0.05817,-0.059 0.03228,5e-4 0.18721,0.2223 0.23499,0.2389 0.03787,0.013 0.08004,-0.012 0.117204,8e-4 0.05219,0.017 0.0624,0.1193 0.117495,0.1195 0.02794,5e-4 0.03023,-0.059 0.05817,-0.059 0.02794,5e-4 0.0318,0.06 0.05903,0.06 0.02793,5e-4 0.03023,-0.059 0.05817,-0.059 0.05516,3e-4 0.06226,0.119 0.117423,0.1193 0.02793,5e-4 0.03023,-0.059 0.05817,-0.059 0.05516,3e-4 0.06226,0.119 0.117495,0.1194 0.02794,5e-4 0.03023,-0.059 0.05817,-0.059 0.02794,6e-4 0.03263,0.051 0.05903,0.06 0.03715,0.013 0.08005,-0.012 0.117197,8e-4 0.02569,0.01 0.0318,0.06 0.05904,0.06 0.02794,5e-4 0.03023,-0.059 0.05817,-0.059 0.02793,5e-4 0.0318,0.06 0.05904,0.06 0.05516,3e-4 0.06118,-0.1186 0.116348,-0.1183 0.05516,4e-4 0.06234,0.1191 0.117424,0.1193 0.02793,5e-4 0.03023,-0.059 0.05817,-0.059 0.02794,5e-4 0.03181,0.06 0.05904,0.06 0.02794,5e-4 0.03023,-0.059 0.05817,-0.059 0.02794,5e-4 0.03181,0.06 0.05903,0.06 0.155128,-0.1577 -0.0393,-6e-4 0.117195,9e-4 0.02794,5e-4 0.03825,-0.08 0.05817,-0.059 0.01991,0.02 -0.03023,0.059 -0.05817,0.059 -0.02793,-6e-4 -0.03181,-0.06 -0.05903,-0.06 -0.02795,-5e-4 -0.03023,0.059 -0.05817,0.059 -0.02795,-5e-4 -0.03181,-0.06 -0.05904,-0.06 -0.156019,-9e-4 0.03977,0.1587 -0.117197,-9e-4 -0.156612,-0.1592 0.03931,5e-4 -0.117196,-9e-4 -0.02793,-6e-4 -0.03181,-0.06 -0.05903,-0.06 -0.02795,-6e-4 -0.03023,0.059 -0.05817,0.059 -0.05516,-3e-4 -0.06247,-0.1192 -0.117495,-0.1193 -0.02793,-5e-4 -0.03023,0.059 -0.05817,0.059 -0.02793,-5e-4 -0.03181,-0.06 -0.05903,-0.06 -0.02794,-6e-4 -0.03023,0.059 -0.05817,0.059 -0.05516,-3e-4 -0.06226,-0.1191 -0.117495,-0.1195 -0.02793,-5e-4 -0.03023,0.059 -0.05817,0.059 -0.241912,0 0.192465,-0.1781 -0.175589,-0.06 -0.155129,0.1578 0.03931,6e-4 -0.117196,-8e-4 -0.02794,-5e-4 -0.03023,0.059 -0.05817,0.059 -0.05516,-3e-4 -0.06248,-0.1193 -0.117494,-0.1195 -0.02793,-5e-4 -0.03023,0.059 -0.05817,0.059 -0.05895,-9e-4 -0.117857,-0.1789 -0.176313,-0.1792 -0.02794,-5e-4 -0.03023,0.059 -0.05817,0.059 -0.05516,-4e-4 -0.06233,-0.1192 -0.117424,-0.1195 -0.155129,0.1577 0.03931,5e-4 -0.117196,-9e-4 -0.02793,-5e-4 -0.03023,0.059 -0.05817,0.059 -0.02793,-5e-4 -0.03181,-0.06 -0.05903,-0.06 -0.02794,-5e-4 -0.03023,0.059 -0.05817,0.059 -0.05896,-8e-4 -0.117715,-0.1787 -0.176242,-0.1791 -0.02794,-5e-4 -0.03023,0.059 -0.05817,0.059 -0.02794,-6e-4 -0.03181,-0.06 -0.05903,-0.06 -0.02793,-5e-4 -0.0323,0.05 -0.05817,0.059 -0.364364,0.1218 0.06219,-0.063 -0.175587,-0.06 -0.02793,-5e-4 -0.03023,0.059 -0.05817,0.059 -0.02793,-5e-4 -0.0318,-0.06 -0.05904,-0.06 -0.02794,-5e-4 -0.03023,0.059 -0.05817,0.059 -0.02794,-5e-4 -0.03181,-0.06 -0.05903,-0.06 -0.02794,-5e-4 -0.03023,0.059 -0.05817,0.059 -0.02794,-6e-4 -0.03335,-0.051 -0.05904,-0.06 -0.03644,-0.012 -0.08005,0.012 -0.117196,-9e-4 -0.02569,-0.01 -0.03181,-0.06 -0.05904,-0.06 -0.02794,-6e-4 -0.03023,0.059 -0.05817,0.059 -0.05516,-3e-4 -0.06233,-0.1192 -0.117495,-0.1195 -0.02793,-5e-4 -0.03023,0.059 -0.05817,0.059 -0.02793,-5e-4 -0.03262,-0.051 -0.05904,-0.06 -0.03715,-0.013 -0.08004,0.012 -0.117196,-8e-4 -0.02569,-0.01 -0.0318,-0.06 -0.05903,-0.06 -0.02795,-5e-4 -0.03023,0.059 -0.05817,0.059 -0.02795,-6e-4 -0.0318,-0.06 -0.05904,-0.06 -0.02793,-5e-4 -0.03023,0.059 -0.05817,0.059 -0.02793,-5e-4 -0.0318,-0.06 -0.05904,-0.06 -0.02794,-5e-4 -0.03024,0.059 -0.05817,0.059 -0.02794,-5e-4 -0.0318,-0.06 -0.05903,-0.06 -0.155944,-9e-4 0.03969,0.1586 -0.117203,-9e-4 -0.15647,-0.159 0.0393,6e-4 -0.117196,-9e-4 -0.02793,-5e-4 -0.0318,-0.06 -0.05903,-0.06 -0.02794,-5e-4 -0.03023,0.059 -0.05817,0.059 -0.02794,-5e-4 -0.03263,-0.051 -0.05904,-0.06 -0.03715,-0.012 -0.08005,0.012 -0.117196,-9e-4 -0.02641,-0.01 -0.0318,-0.06 -0.05903,-0.06 -0.02793,-5e-4 -0.03022,0.059 -0.05817,0.059 -0.05516,-3e-4 -0.06247,-0.1192 -0.117495,-0.1194 -0.02794,-5e-4 -0.03023,0.059 -0.05817,0.059 -0.02794,-5e-4 -0.0318,-0.06 -0.05903,-0.06 -0.02794,-5e-4 -0.03023,0.059 -0.05817,0.059 -0.05516,-3e-4 -0.06234,-0.1192 -0.117494,-0.1196 -0.05516,-3e-4 -0.06118,0.1186 -0.116348,0.1183 -0.05895,-8e-4 -0.117715,-0.1786 -0.176171,-0.1789 -0.02793,-6e-4 -0.03023,0.059 -0.05817,0.059 -0.05516,-3e-4 -0.06234,-0.1191 -0.117566,-0.1195 -0.05516,-3e-4 -0.06118,0.1186 -0.116348,0.1182 -0.05516,-3e-4 -0.06219,-0.1189 -0.117424,-0.1193 -0.02793,-5e-4 -0.03023,0.059 -0.05817,0.059 -0.05516,-3e-4 -0.06226,-0.1191 -0.117494,-0.1194 -0.02794,-6e-4 -0.03023,0.059 -0.05817,0.059 -0.02821,-2e-4 -0.2068454,-0.2387 -0.2349184,-0.2388 -0.02793,-5e-4 -0.03023,0.059 -0.05817,0.059 -0.02793,-5e-4 -0.0318,-0.06 -0.05903,-0.06 -0.02795,-5e-4 -0.03023,0.059 -0.05817,0.059 -0.05896,-9e-4 -0.117859,-0.179 -0.176314,-0.1793 -0.02793,-5e-4 -0.03023,0.059 -0.05817,0.059 -0.02793,-5e-4 -0.03181,-0.06 -0.05904,-0.06 -0.02794,-6e-4 -0.03023,0.059 -0.05817,0.059 -0.02821,-3e-4 -0.206846,-0.2387 -0.234989,-0.2389 -0.02794,-6e-4 -0.03023,0.059 -0.05817,0.059 -0.02821,-3e-4 -0.206846,-0.2387 -0.234919,-0.2388 -0.02793,-5e-4 -0.03023,0.059 -0.05817,0.059 -0.0023,0 -0.213368,-0.2168 -0.234917,-0.2387 -0.02205,-0.022 -0.230295,-0.2388 -0.23499,-0.2388 -0.02794,-6e-4 -0.03023,0.059 -0.05817,0.059 -0.02793,-5e-4 -0.03912,-0.04 -0.05903,-0.06 -0.01992,-0.02 -0.03912,-0.04 -0.05904,-0.06 -0.176171,-0.1791 -0.352413,-0.3583 -0.528584,-0.5372 -0.01422,-0.014 -0.176171,-0.1753 -0.176171,-0.1792 -5.12e-4,-0.029 0.05868,-0.031 0.05817,-0.059 -3.12e-4,-0.056 -0.117182,-0.064 -0.117494,-0.1195 -5.11e-4,-0.029 0.05869,-0.031 0.05817,-0.059 -2.06e-4,-0.042 -0.273154,-0.2368 -0.293666,-0.2985 -0.01263,-0.038 0.01176,-0.082 -8.67e-4,-0.1191 -0.01193,-0.036 -0.176042,-0.1547 -0.1761,-0.179 -5.13e-4,-0.029 0.05869,-0.031 0.05817,-0.059 -5.13e-4,-0.029 -0.03912,-0.04 -0.05904,-0.06 -0.01992,-0.021 -0.03912,-0.04 -0.05903,-0.06 -0.117495,-0.1194 -0.234919,-0.2389 -0.352414,-0.3583 -0.02702,-0.028 -0.149485,-0.1698 -0.176311,-0.1791 -0.03644,-0.012 -0.08005,0.012 -0.117197,-9e-4 -0.02733,-0.01 -0.149714,-0.1522 -0.1761,-0.179 -0.156684,-0.1593 -0.313367,-0.3185 -0.469837,-0.4776 -0.09801,-0.1002 -0.195871,-0.1991 -0.293736,-0.2986 -0.01992,-0.021 -0.03181,-0.06 -0.05904,-0.06 -0.02794,-6e-4 -0.03023,0.059 -0.05817,0.059 -0.05895,-8e-4 -0.117786,-0.1789 -0.176242,-0.1791 -0.02794,-6e-4 -0.03023,0.059 -0.05817,0.059 -0.05516,-3e-4 -0.06233,-0.1191 -0.117424,-0.1194 -0.02794,-6e-4 -0.0323,0.05 -0.05817,0.059 -0.364364,0.1218 0.06219,-0.063 -0.175659,-0.06 -0.02794,-5e-4 -0.03023,0.059 -0.05817,0.059 -0.05516,-3e-4 -0.06233,-0.1191 -0.117423,-0.1193 -0.02794,-5e-4 -0.0323,0.05 -0.05817,0.059 -0.03662,0.012 -0.07989,-0.013 -0.117196,-9e-4 -0.02589,0.01 -0.03825,0.08 -0.05817,0.059 -0.01991,-0.02 0.07757,-0.079 0.05817,-0.059 -0.03877,0.04 -0.06459,0.1002 -0.116347,0.1183 -0.05176,0.018 -0.0624,-0.1192 -0.117424,-0.1193 -0.02793,-6e-4 -0.03023,0.059 -0.05817,0.059 -0.02793,-5e-4 -0.03181,-0.06 -0.05903,-0.06 -0.02793,-6e-4 -0.03024,0.059 -0.05817,0.059 -0.155162,0 0.03793,-0.1585 -0.117203,-8e-4"
       id="path3761-8"
       inkscape:connector-curvature="0" />
    <path
       style="fill:none;stroke:#000000;stroke-width:1.50638258px;stroke-linecap:butt;stroke-linejoin:miter;stroke-opacity:1"
       d="m 3.7531913,1043.096 c 0.1392,-0.137 0.2787,-0.2742 0.4179,-0.4112 0.021,-0.02 0.033,-0.059 0.06,-0.059 0.029,-5e-4 0.031,0.059 0.059,0.058 0.056,-3e-4 0.063,-0.1171 0.1193,-0.1174 0.029,-6e-4 0.031,0.059 0.059,0.058 0.056,-3e-4 0.063,-0.1171 0.1195,-0.1175 0.029,-5e-4 0.031,0.059 0.059,0.058 0.06,-8e-4 0.1197,-0.1759 0.1791,-0.1761 0.1586,-9e-4 -0.04,0.156 0.1191,-9e-4 0.02,-0.02 0.04,-0.039 0.06,-0.059 0.02,-0.02 0.033,-0.059 0.06,-0.059 0.029,-5e-4 0.031,0.059 0.059,0.058 0.056,-3e-4 0.063,-0.1171 0.1194,-0.1175 0.029,-5e-4 0.031,0.059 0.059,0.058 0.029,-5e-4 0.033,-0.059 0.06,-0.059 0.029,-5e-4 0.031,0.059 0.059,0.058 0.029,-5e-4 0.033,-0.059 0.06,-0.059 0.029,-5e-4 0.031,0.059 0.059,0.058 0.06,-8e-4 0.1196,-0.176 0.1792,-0.1763 0.029,-5e-4 0.031,0.059 0.059,0.058 0.029,-5e-4 0.033,-0.059 0.06,-0.059 0.029,-5e-4 0.031,0.059 0.059,0.058 0.029,-5e-4 0.033,-0.059 0.06,-0.059 0.029,-5e-4 0.031,0.059 0.059,0.058 0.029,-5e-4 0.033,-0.059 0.06,-0.059 0.029,-5e-4 0.031,0.059 0.059,0.058 0.056,-3e-4 0.063,-0.1172 0.1194,-0.1174 0.029,-6e-4 0.031,0.059 0.059,0.058 0.056,-3e-4 0.063,-0.1172 0.1193,-0.1174 0.029,-5e-4 0.031,0.059 0.059,0.058 0.029,-5e-4 0.033,-0.059 0.06,-0.059 0.029,-5e-4 0.031,0.059 0.059,0.058 0.029,-5e-4 0.033,-0.059 0.06,-0.059 0.029,-5e-4 0.031,0.059 0.059,0.058 0.029,-5e-4 0.033,-0.059 0.06,-0.059 0.029,-5e-4 0.031,0.059 0.059,0.058 0.056,-3e-4 0.063,-0.1172 0.1193,-0.1174 0.029,-5e-4 0.031,0.059 0.059,0.058 0.029,-5e-4 0.033,-0.059 0.06,-0.059 0.1576,0.1551 -0.04,5e-4 0.1191,-9e-4 0.056,-3e-4 0.062,0.1167 0.1183,0.1164 0.056,-3e-4 0.063,-0.1173 0.1192,-0.1175 0.029,-5e-4 0.031,0.059 0.059,0.058 0.029,-5e-4 0.033,-0.059 0.06,-0.059 0.029,-5e-4 0.031,0.059 0.059,0.058 0.029,-5e-4 0.033,-0.059 0.06,-0.059 0.056,-3e-4 0.062,0.1167 0.1183,0.1164 0.029,-6e-4 0.033,-0.059 0.06,-0.059 0.029,-5e-4 0.031,0.059 0.059,0.058 0.056,-3e-4 0.064,-0.1172 0.1196,-0.1176 0.029,-5e-4 0.031,0.059 0.059,0.058 0.029,-5e-4 0.033,-0.059 0.06,-0.059 0.029,-6e-4 0.031,0.059 0.059,0.058 0.029,-5e-4 0.033,-0.059 0.06,-0.059 0.056,-3e-4 0.062,0.1167 0.1183,0.1163 0.029,-5e-4 0.033,-0.059 0.06,-0.059 0.029,-5e-4 0.031,0.059 0.059,0.058 0.029,-5e-4 0.033,-0.059 0.06,-0.059 0.029,-5e-4 0.031,0.059 0.059,0.058 0.029,-5e-4 0.033,-0.059 0.06,-0.059 0.029,-5e-4 0.031,0.059 0.059,0.058 0.029,-5e-4 0.033,-0.059 0.06,-0.059 0.056,-3e-4 0.062,0.1167 0.1181,0.1164 0.056,-4e-4 0.063,-0.1172 0.1195,-0.1175 0.029,-6e-4 0.031,0.059 0.059,0.058 0.029,-5e-4 0.033,-0.059 0.06,-0.059 0.029,-5e-4 0.033,0.049 0.059,0.058 0.075,0.024 0.1626,-0.025 0.2376,0 0.027,0.01 0.031,0.059 0.059,0.058 0.029,-5e-4 0.033,-0.05 0.06,-0.059 0.024,-0.01 0.3329,-0.01 0.3565,0 0.027,0.01 0.031,0.059 0.059,0.058 0.056,-3e-4 0.067,-0.1002 0.1195,-0.1176 0.076,-0.025 0.1627,0.024 0.2377,0 0.025,-0.01 0.033,-0.059 0.06,-0.059 0.056,-4e-4 0.062,0.1166 0.1182,0.1163 0.06,-8e-4 0.1197,-0.1759 0.1792,-0.1762 0.029,-5e-4 0.031,0.059 0.059,0.058 0.029,-5e-4 0.033,-0.059 0.06,-0.059 0.029,-5e-4 0.031,0.059 0.059,0.058 0.029,-5e-4 0.033,-0.059 0.06,-0.059 0.029,-5e-4 0.031,0.059 0.059,0.058 0.029,-5e-4 0.034,-0.051 0.06,-0.059 0.3942,0 -0.084,0.028 0.1786,-0.059 0.1201,-0.04 0.1183,0.038 0.2376,0 0.025,-0.01 0.033,-0.059 0.06,-0.059 0.029,-5e-4 0.031,0.059 0.059,0.058 0.246,0 -0.1957,-0.1754 0.1785,-0.059 0.027,0.01 0.031,0.059 0.059,0.058 0.06,-8e-4 0.1196,-0.1759 0.1791,-0.1763 0.029,-5e-4 0.031,0.059 0.059,0.058 0.029,-5e-4 0.033,-0.059 0.06,-0.059 0.029,-5e-4 0.031,0.059 0.059,0.058 0.056,-3e-4 0.063,-0.1172 0.1193,-0.1174 0.029,-5e-4 0.031,0.059 0.059,0.058 0.06,-7e-4 0.1198,-0.1759 0.1793,-0.1763 0.029,-5e-4 0.031,0.059 0.059,0.058 0.029,-5e-4 0.04,-0.039 0.06,-0.059 0.099,-0.098 0.1989,-0.1958 0.2985,-0.2938 0.021,-0.02 0.033,-0.059 0.06,-0.059 0.029,-5e-4 0.031,0.059 0.059,0.058 0.032,2e-4 0.1903,-0.2189 0.2389,-0.2351 0.039,-0.013 0.082,0.012 0.1191,-9e-4 0.062,-0.021 0.2568,-0.2934 0.2986,-0.2937 0.029,-5e-4 0.031,0.059 0.059,0.058 0,0 0.1645,-0.1619 0.179,-0.1761 0.2387,-0.2349 0.4776,-0.4699 0.7164,-0.7049 0.021,-0.02 0.04,-0.039 0.06,-0.059 0.02,-0.02 0.06,-0.032 0.06,-0.059 5e-4,-0.028 -0.059,-0.03 -0.059,-0.058 5e-4,-0.028 0.04,-0.039 0.06,-0.059 0.02,-0.02 0.04,-0.039 0.06,-0.059 0.014,-0.014 0.1793,-0.1725 0.1792,-0.1762 5e-4,-0.028 -0.059,-0.03 -0.059,-0.058 0,0 0.217,-0.2134 0.2388,-0.235 0.023,-0.022 0.2388,-0.2303 0.2388,-0.2349 6e-4,-0.028 -0.059,-0.03 -0.059,-0.058 9e-4,-0.059 0.1789,-0.1178 0.1792,-0.1762 5e-4,-0.028 -0.059,-0.03 -0.059,-0.058 8e-4,-0.059 0.1789,-0.1178 0.1791,-0.1762 5e-4,-0.028 -0.059,-0.03 -0.059,-0.058 5e-4,-0.028 0.06,-0.032 0.06,-0.059 5e-4,-0.028 -0.059,-0.03 -0.059,-0.058 5e-4,-0.032 0.2223,-0.1872 0.2389,-0.235 0.013,-0.038 -0.012,-0.08 8e-4,-0.1172 0.017,-0.052 0.1193,-0.062 0.1195,-0.1175 5e-4,-0.028 -0.059,-0.03 -0.059,-0.058 5e-4,-0.028 0.06,-0.032 0.06,-0.059 5e-4,-0.028 -0.059,-0.03 -0.059,-0.058 3e-4,-0.055 0.119,-0.062 0.1193,-0.1174 5e-4,-0.028 -0.059,-0.03 -0.059,-0.058 3e-4,-0.055 0.119,-0.062 0.1194,-0.1175 5e-4,-0.028 -0.059,-0.03 -0.059,-0.058 6e-4,-0.028 0.051,-0.033 0.06,-0.059 0.013,-0.037 -0.012,-0.08 8e-4,-0.1172 0.01,-0.026 0.06,-0.032 0.06,-0.059 5e-4,-0.028 -0.059,-0.03 -0.059,-0.058 5e-4,-0.028 0.06,-0.032 0.06,-0.059 3e-4,-0.055 -0.1186,-0.061 -0.1183,-0.1164 4e-4,-0.055 0.1191,-0.062 0.1193,-0.1174 5e-4,-0.028 -0.059,-0.03 -0.059,-0.058 5e-4,-0.028 0.06,-0.032 0.06,-0.059 5e-4,-0.028 -0.059,-0.03 -0.059,-0.058 5e-4,-0.028 0.06,-0.032 0.06,-0.059 -0.1577,-0.1551 -6e-4,0.039 9e-4,-0.1172 5e-4,-0.028 -0.08,-0.038 -0.059,-0.058 0.02,-0.02 0.059,0.03 0.059,0.058 -6e-4,0.028 -0.06,0.032 -0.06,0.059 -5e-4,0.028 0.059,0.03 0.059,0.058 -5e-4,0.028 -0.06,0.032 -0.06,0.059 -9e-4,0.156 0.1587,-0.04 -9e-4,0.1172 -0.1592,0.1566 5e-4,-0.039 -9e-4,0.1172 -6e-4,0.028 -0.06,0.032 -0.06,0.059 -6e-4,0.028 0.059,0.03 0.059,0.058 -3e-4,0.055 -0.1192,0.062 -0.1193,0.1175 -5e-4,0.028 0.059,0.03 0.059,0.058 -5e-4,0.028 -0.06,0.032 -0.06,0.059 -6e-4,0.028 0.059,0.03 0.059,0.058 -3e-4,0.055 -0.1191,0.062 -0.1195,0.1175 -5e-4,0.028 0.059,0.03 0.059,0.058 0,0.2419 -0.1781,-0.1925 -0.06,0.1755 0.1578,0.1552 6e-4,-0.039 -8e-4,0.1172 -5e-4,0.028 0.059,0.03 0.059,0.058 -3e-4,0.055 -0.1193,0.062 -0.1195,0.1175 -5e-4,0.028 0.059,0.03 0.059,0.058 -9e-4,0.059 -0.1789,0.1178 -0.1792,0.1763 -5e-4,0.028 0.059,0.03 0.059,0.058 -4e-4,0.055 -0.1192,0.062 -0.1195,0.1174 0.1577,0.1551 5e-4,-0.039 -9e-4,0.1172 -5e-4,0.028 0.059,0.03 0.059,0.058 -5e-4,0.028 -0.06,0.032 -0.06,0.059 -5e-4,0.028 0.059,0.03 0.059,0.058 -8e-4,0.059 -0.1787,0.1178 -0.1791,0.1763 -5e-4,0.028 0.059,0.03 0.059,0.058 -6e-4,0.028 -0.06,0.032 -0.06,0.059 -5e-4,0.028 0.05,0.032 0.059,0.058 0.1218,0.3643 -0.063,-0.062 -0.06,0.1755 -5e-4,0.028 0.059,0.03 0.059,0.058 -5e-4,0.028 -0.06,0.032 -0.06,0.059 -5e-4,0.028 0.059,0.03 0.059,0.058 -5e-4,0.028 -0.06,0.032 -0.06,0.059 -5e-4,0.028 0.059,0.03 0.059,0.058 -6e-4,0.028 -0.051,0.033 -0.06,0.059 -0.012,0.036 0.012,0.08 -9e-4,0.1172 -0.01,0.026 -0.06,0.032 -0.06,0.059 -6e-4,0.028 0.059,0.03 0.059,0.058 -3e-4,0.055 -0.1192,0.062 -0.1195,0.1175 -5e-4,0.028 0.059,0.03 0.059,0.058 -5e-4,0.028 -0.051,0.033 -0.06,0.059 -0.013,0.037 0.012,0.08 -8e-4,0.1172 -0.01,0.026 -0.06,0.032 -0.06,0.059 -5e-4,0.028 0.059,0.03 0.059,0.058 -6e-4,0.028 -0.06,0.032 -0.06,0.059 -5e-4,0.028 0.059,0.03 0.059,0.058 -5e-4,0.028 -0.06,0.032 -0.06,0.059 -5e-4,0.028 0.059,0.03 0.059,0.058 -5e-4,0.028 -0.06,0.032 -0.06,0.059 -9e-4,0.156 0.1586,-0.04 -9e-4,0.1172 -0.159,0.1565 6e-4,-0.039 -9e-4,0.1172 -5e-4,0.028 -0.06,0.032 -0.06,0.059 -5e-4,0.028 0.059,0.03 0.059,0.058 -5e-4,0.028 -0.051,0.033 -0.06,0.059 -0.012,0.037 0.012,0.08 -9e-4,0.1172 -0.01,0.026 -0.06,0.032 -0.06,0.059 -5e-4,0.028 0.059,0.03 0.059,0.058 -3e-4,0.055 -0.1192,0.062 -0.1194,0.1175 -5e-4,0.028 0.059,0.03 0.059,0.058 -5e-4,0.028 -0.06,0.032 -0.06,0.059 -5e-4,0.028 0.059,0.03 0.059,0.058 -3e-4,0.055 -0.1192,0.062 -0.1196,0.1175 -3e-4,0.055 0.1186,0.061 0.1183,0.1164 -8e-4,0.059 -0.1786,0.1177 -0.1789,0.1761 -6e-4,0.028 0.059,0.03 0.059,0.058 -3e-4,0.055 -0.1191,0.062 -0.1195,0.1176 -3e-4,0.055 0.1186,0.061 0.1182,0.1163 -3e-4,0.055 -0.1189,0.062 -0.1193,0.1174 -5e-4,0.028 0.059,0.03 0.059,0.058 -3e-4,0.055 -0.1191,0.062 -0.1194,0.1175 -6e-4,0.028 0.059,0.03 0.059,0.058 -2e-4,0.028 -0.2387,0.2068 -0.2388,0.2349 -5e-4,0.028 0.059,0.03 0.059,0.058 -5e-4,0.028 -0.06,0.032 -0.06,0.059 -5e-4,0.028 0.059,0.03 0.059,0.058 -9e-4,0.059 -0.179,0.1178 -0.1793,0.1763 -5e-4,0.028 0.059,0.03 0.059,0.058 -5e-4,0.028 -0.06,0.032 -0.06,0.059 -6e-4,0.028 0.059,0.03 0.059,0.058 -3e-4,0.028 -0.2387,0.2068 -0.2389,0.2349 -6e-4,0.028 0.059,0.03 0.059,0.058 -3e-4,0.028 -0.2387,0.2069 -0.2388,0.2349 -5e-4,0.028 0.059,0.03 0.059,0.058 0,0 -0.2168,0.2134 -0.2387,0.2349 -0.022,0.022 -0.2388,0.2303 -0.2388,0.235 -6e-4,0.028 0.059,0.03 0.059,0.058 -5e-4,0.028 -0.04,0.039 -0.06,0.059 -0.02,0.02 -0.04,0.039 -0.06,0.059 -0.1791,0.1761 -0.3583,0.3524 -0.5372,0.5285 -0.014,0.014 -0.1753,0.1762 -0.1792,0.1762 -0.029,5e-4 -0.031,-0.059 -0.059,-0.058 -0.056,4e-4 -0.064,0.1172 -0.1195,0.1175 -0.029,5e-4 -0.031,-0.059 -0.059,-0.058 -0.042,2e-4 -0.2368,0.2731 -0.2985,0.2936 -0.038,0.013 -0.082,-0.012 -0.1191,9e-4 -0.036,0.012 -0.1547,0.176 -0.179,0.1761 -0.029,5e-4 -0.031,-0.059 -0.059,-0.058 -0.029,5e-4 -0.04,0.039 -0.06,0.059 -0.021,0.02 -0.04,0.039 -0.06,0.059 -0.1194,0.1175 -0.2389,0.2349 -0.3583,0.3524 -0.028,0.027 -0.1698,0.1495 -0.1791,0.1763 -0.012,0.036 0.012,0.08 -9e-4,0.1172 -0.01,0.027 -0.1522,0.1497 -0.179,0.1761 -0.1593,0.1567 -0.3185,0.3134 -0.4776,0.4699 -0.1002,0.098 -0.1991,0.1958 -0.2986,0.2937 -0.021,0.02 -0.06,0.032 -0.06,0.059 -6e-4,0.028 0.059,0.03 0.059,0.058 -8e-4,0.059 -0.1789,0.1178 -0.1791,0.1762 -6e-4,0.028 0.059,0.03 0.059,0.058 -3e-4,0.055 -0.1191,0.062 -0.1194,0.1174 -6e-4,0.028 0.05,0.032 0.059,0.058 0.1218,0.3644 -0.063,-0.062 -0.06,0.1757 -5e-4,0.028 0.059,0.03 0.059,0.058 -3e-4,0.055 -0.119099,0.062 -0.119299,0.1175 -5e-4,0.028 0.05,0.032 0.059,0.058 0.012,0.037 -0.013,0.08 -9e-4,0.1172 0.01,0.026 0.08,0.038 0.059,0.058 -0.02,0.02 -0.079,-0.078 -0.059,-0.058 0.04,0.039 0.100199,0.065 0.118299,0.1164 0.018,0.052 -0.119199,0.062 -0.119299,0.1174 -6e-4,0.028 0.059,0.03 0.059,0.058 -5e-4,0.028 -0.06,0.032 -0.06,0.059 -6e-4,0.028 0.059,0.03 0.059,0.058 0,0.1551 -0.1585,-0.038 -8e-4,0.1172"
       id="path3761-2"
       inkscape:connector-curvature="0" />
    <path
       style="fill:none;stroke:#000000;stroke-width:1.50638258px;stroke-linecap:butt;stroke-linejoin:miter;stroke-opacity:1"
       d="m 36.224458,1021.6359 c -0.1392,0.1371 -0.2787,0.2742 -0.4179,0.4112 -0.021,0.02 -0.033,0.059 -0.06,0.059 -0.029,5e-4 -0.031,-0.059 -0.059,-0.058 -0.056,3e-4 -0.063,0.117 -0.1193,0.1174 -0.029,5e-4 -0.031,-0.059 -0.059,-0.058 -0.056,3e-4 -0.063,0.1171 -0.1195,0.1175 -0.029,5e-4 -0.031,-0.059 -0.059,-0.058 -0.06,8e-4 -0.1197,0.1759 -0.1791,0.1761 -0.1586,9e-4 0.04,-0.156 -0.1191,9e-4 -0.02,0.02 -0.04,0.039 -0.06,0.059 -0.02,0.02 -0.033,0.059 -0.06,0.059 -0.029,5e-4 -0.031,-0.059 -0.059,-0.058 -0.056,3e-4 -0.063,0.1172 -0.1194,0.1175 -0.029,5e-4 -0.031,-0.059 -0.059,-0.058 -0.029,5e-4 -0.033,0.059 -0.06,0.059 -0.029,5e-4 -0.031,-0.059 -0.059,-0.058 -0.029,5e-4 -0.033,0.059 -0.06,0.059 -0.029,5e-4 -0.031,-0.059 -0.059,-0.058 -0.06,7e-4 -0.1196,0.1759 -0.1792,0.1763 -0.029,5e-4 -0.031,-0.059 -0.059,-0.058 -0.029,5e-4 -0.033,0.059 -0.06,0.059 -0.029,5e-4 -0.031,-0.059 -0.059,-0.058 -0.029,5e-4 -0.033,0.059 -0.06,0.059 -0.029,5e-4 -0.031,-0.059 -0.059,-0.058 -0.029,5e-4 -0.033,0.059 -0.06,0.059 -0.029,5e-4 -0.031,-0.059 -0.059,-0.058 -0.056,3e-4 -0.063,0.1172 -0.1194,0.1175 -0.029,5e-4 -0.031,-0.059 -0.059,-0.058 -0.056,3e-4 -0.063,0.1173 -0.1193,0.1174 -0.029,5e-4 -0.031,-0.059 -0.059,-0.058 -0.029,5e-4 -0.033,0.059 -0.06,0.059 -0.029,5e-4 -0.031,-0.059 -0.059,-0.058 -0.029,5e-4 -0.033,0.059 -0.06,0.059 -0.029,5e-4 -0.031,-0.059 -0.059,-0.058 -0.029,5e-4 -0.033,0.059 -0.06,0.059 -0.029,5e-4 -0.031,-0.059 -0.059,-0.058 -0.056,4e-4 -0.063,0.1172 -0.1193,0.1175 -0.029,5e-4 -0.031,-0.059 -0.059,-0.058 -0.029,5e-4 -0.033,0.059 -0.06,0.059 -0.1576,-0.1551 0.04,-5e-4 -0.1191,9e-4 -0.056,3e-4 -0.062,-0.1167 -0.1183,-0.1163 -0.056,3e-4 -0.063,0.1172 -0.1192,0.1174 -0.029,5e-4 -0.031,-0.059 -0.059,-0.058 -0.029,5e-4 -0.033,0.059 -0.06,0.059 -0.029,5e-4 -0.031,-0.059 -0.059,-0.058 -0.029,5e-4 -0.033,0.059 -0.06,0.059 -0.056,3e-4 -0.062,-0.1166 -0.1183,-0.1163 -0.029,5e-4 -0.033,0.059 -0.06,0.059 -0.029,5e-4 -0.031,-0.059 -0.059,-0.058 -0.056,4e-4 -0.064,0.1172 -0.1196,0.1176 -0.029,5e-4 -0.031,-0.059 -0.059,-0.058 -0.029,6e-4 -0.033,0.059 -0.06,0.059 -0.029,5e-4 -0.031,-0.059 -0.059,-0.058 -0.029,5e-4 -0.033,0.059 -0.06,0.059 -0.056,4e-4 -0.062,-0.1166 -0.1183,-0.1163 -0.029,5e-4 -0.033,0.059 -0.06,0.059 -0.029,5e-4 -0.031,-0.059 -0.059,-0.058 -0.029,5e-4 -0.033,0.059 -0.06,0.059 -0.029,5e-4 -0.031,-0.059 -0.059,-0.058 -0.029,5e-4 -0.033,0.059 -0.06,0.059 -0.029,5e-4 -0.031,-0.059 -0.059,-0.058 -0.029,5e-4 -0.033,0.059 -0.06,0.059 -0.056,3e-4 -0.062,-0.1166 -0.1181,-0.1163 -0.056,3e-4 -0.063,0.1172 -0.1195,0.1175 -0.029,5e-4 -0.031,-0.059 -0.059,-0.058 -0.029,5e-4 -0.033,0.059 -0.06,0.059 -0.029,5e-4 -0.033,-0.049 -0.059,-0.058 -0.075,-0.024 -0.1626,0.025 -0.2376,0 -0.027,-0.01 -0.031,-0.059 -0.059,-0.058 -0.029,5e-4 -0.033,0.05 -0.06,0.059 -0.024,0.01 -0.3329,0.01 -0.3565,0 -0.027,-0.01 -0.031,-0.059 -0.059,-0.058 -0.056,3e-4 -0.067,0.1001 -0.1195,0.1175 -0.076,0.025 -0.1627,-0.024 -0.2377,0 -0.025,0.01 -0.033,0.059 -0.06,0.059 -0.056,3e-4 -0.062,-0.1167 -0.1182,-0.1164 -0.06,8e-4 -0.1197,0.176 -0.1792,0.1763 -0.029,5e-4 -0.031,-0.059 -0.059,-0.058 -0.029,5e-4 -0.033,0.059 -0.06,0.059 -0.029,5e-4 -0.031,-0.059 -0.059,-0.058 -0.029,6e-4 -0.033,0.059 -0.06,0.059 -0.029,5e-4 -0.031,-0.059 -0.059,-0.058 -0.029,5e-4 -0.034,0.051 -0.06,0.059 -0.3942,0 0.084,-0.028 -0.1786,0.059 -0.1201,0.04 -0.1183,-0.038 -0.2376,0 -0.025,0.01 -0.033,0.059 -0.06,0.059 -0.029,5e-4 -0.031,-0.059 -0.059,-0.058 -0.246,0 0.1957,0.1754 -0.1785,0.059 -0.027,-0.01 -0.031,-0.059 -0.059,-0.058 -0.06,8e-4 -0.1196,0.1759 -0.1791,0.1763 -0.029,5e-4 -0.031,-0.059 -0.059,-0.058 -0.029,5e-4 -0.033,0.059 -0.06,0.059 -0.029,5e-4 -0.031,-0.059 -0.059,-0.058 -0.056,3e-4 -0.063,0.1173 -0.1193,0.1175 -0.029,5e-4 -0.031,-0.059 -0.059,-0.058 -0.06,8e-4 -0.1198,0.1759 -0.1793,0.1763 -0.029,5e-4 -0.031,-0.059 -0.059,-0.058 -0.029,5e-4 -0.04,0.039 -0.06,0.059 -0.099,0.098 -0.1989,0.1958 -0.2985,0.2937 -0.021,0.02 -0.033,0.059 -0.06,0.059 -0.029,5e-4 -0.031,-0.059 -0.059,-0.058 -0.032,-3e-4 -0.1903,0.2188 -0.2389,0.235 -0.039,0.013 -0.082,-0.012 -0.1191,9e-4 -0.062,0.021 -0.2568,0.2934 -0.2986,0.2937 -0.029,5e-4 -0.031,-0.059 -0.059,-0.058 0,0 -0.1645,0.1618 -0.179,0.1761 -0.2387,0.2349 -0.4776,0.4699 -0.7164,0.7049 -0.021,0.02 -0.04,0.039 -0.06,0.059 -0.02,0.02 -0.06,0.032 -0.06,0.059 -5e-4,0.028 0.059,0.03 0.059,0.058 -5e-4,0.028 -0.04,0.039 -0.06,0.059 -0.02,0.02 -0.04,0.039 -0.06,0.059 -0.014,0.014 -0.1793,0.1724 -0.1792,0.1761 -5e-4,0.028 0.059,0.03 0.059,0.058 0,0 -0.217,0.2134 -0.2388,0.235 -0.023,0.022 -0.2388,0.2303 -0.2388,0.2349 -6e-4,0.028 0.059,0.03 0.059,0.058 -9e-4,0.059 -0.1789,0.1177 -0.1792,0.1762 -5e-4,0.028 0.059,0.03 0.059,0.058 -8e-4,0.059 -0.1789,0.1179 -0.1791,0.1762 -5e-4,0.028 0.059,0.03 0.059,0.058 -5e-4,0.028 -0.06,0.032 -0.06,0.059 -5e-4,0.028 0.059,0.03 0.059,0.058 -5e-4,0.032 -0.2223,0.1872 -0.2389,0.235 -0.013,0.038 0.012,0.08 -8e-4,0.1172 -0.017,0.052 -0.1193,0.062 -0.1195,0.1175 -5e-4,0.028 0.059,0.03 0.059,0.058 -5e-4,0.028 -0.06,0.032 -0.06,0.059 -5e-4,0.028 0.059,0.03 0.059,0.058 -3e-4,0.055 -0.119,0.062 -0.1193,0.1175 -5e-4,0.028 0.059,0.03 0.059,0.058 -3e-4,0.055 -0.119,0.062 -0.1194,0.1175 -5e-4,0.028 0.059,0.03 0.059,0.058 -6e-4,0.028 -0.051,0.033 -0.06,0.059 -0.013,0.037 0.012,0.08 -8e-4,0.1172 -0.01,0.026 -0.06,0.032 -0.06,0.059 -5e-4,0.028 0.059,0.03 0.059,0.058 -5e-4,0.028 -0.06,0.032 -0.06,0.059 -3e-4,0.055 0.1186,0.061 0.1183,0.1163 -4e-4,0.055 -0.1191,0.062 -0.1193,0.1174 -5e-4,0.028 0.059,0.03 0.059,0.058 -5e-4,0.028 -0.06,0.032 -0.06,0.059 -5e-4,0.028 0.059,0.03 0.059,0.058 -5e-4,0.028 -0.06,0.032 -0.06,0.059 0.1577,0.1552 6e-4,-0.039 -9e-4,0.1172 -5e-4,0.028 0.08,0.038 0.059,0.058 -0.02,0.02 -0.059,-0.03 -0.059,-0.058 6e-4,-0.028 0.06,-0.032 0.06,-0.059 5e-4,-0.028 -0.059,-0.03 -0.059,-0.058 5e-4,-0.028 0.06,-0.032 0.06,-0.059 9e-4,-0.156 -0.1587,0.04 9e-4,-0.1172 0.1592,-0.1566 -5e-4,0.039 9e-4,-0.1172 6e-4,-0.028 0.06,-0.032 0.06,-0.059 6e-4,-0.028 -0.059,-0.03 -0.059,-0.058 3e-4,-0.055 0.1192,-0.062 0.1193,-0.1175 5e-4,-0.028 -0.059,-0.03 -0.059,-0.058 5e-4,-0.028 0.06,-0.032 0.06,-0.059 6e-4,-0.028 -0.059,-0.03 -0.059,-0.058 3e-4,-0.055 0.1191,-0.062 0.1195,-0.1174 5e-4,-0.028 -0.059,-0.03 -0.059,-0.058 0,-0.2419 0.1781,0.1924 0.06,-0.1756 -0.1578,-0.1551 -6e-4,0.039 8e-4,-0.1172 5e-4,-0.028 -0.059,-0.03 -0.059,-0.058 3e-4,-0.055 0.1193,-0.062 0.1195,-0.1175 5e-4,-0.028 -0.059,-0.03 -0.059,-0.058 9e-4,-0.059 0.1789,-0.1179 0.1792,-0.1764 5e-4,-0.028 -0.059,-0.03 -0.059,-0.058 4e-4,-0.055 0.1192,-0.062 0.1195,-0.1174 -0.1577,-0.1552 -5e-4,0.039 9e-4,-0.1172 5e-4,-0.028 -0.059,-0.03 -0.059,-0.058 5e-4,-0.028 0.06,-0.032 0.06,-0.059 5e-4,-0.028 -0.059,-0.03 -0.059,-0.058 8e-4,-0.059 0.1787,-0.1177 0.1791,-0.1763 5e-4,-0.028 -0.059,-0.03 -0.059,-0.058 6e-4,-0.028 0.06,-0.032 0.06,-0.059 5e-4,-0.028 -0.05,-0.032 -0.059,-0.058 -0.1218,-0.3644 0.063,0.062 0.06,-0.1756 5e-4,-0.028 -0.059,-0.03 -0.059,-0.058 5e-4,-0.028 0.06,-0.032 0.06,-0.059 5e-4,-0.028 -0.059,-0.03 -0.059,-0.058 5e-4,-0.028 0.06,-0.032 0.06,-0.059 5e-4,-0.028 -0.059,-0.03 -0.059,-0.058 6e-4,-0.028 0.051,-0.033 0.06,-0.059 0.012,-0.037 -0.012,-0.08 9e-4,-0.1172 0.01,-0.026 0.06,-0.032 0.06,-0.059 6e-4,-0.028 -0.059,-0.03 -0.059,-0.058 3e-4,-0.055 0.1192,-0.062 0.1195,-0.1175 5e-4,-0.028 -0.059,-0.03 -0.059,-0.058 5e-4,-0.028 0.051,-0.033 0.06,-0.059 0.013,-0.037 -0.012,-0.08 8e-4,-0.1172 0.01,-0.026 0.06,-0.032 0.06,-0.059 5e-4,-0.028 -0.059,-0.03 -0.059,-0.058 6e-4,-0.028 0.06,-0.032 0.06,-0.059 5e-4,-0.028 -0.059,-0.03 -0.059,-0.058 5e-4,-0.028 0.06,-0.032 0.06,-0.059 5e-4,-0.028 -0.059,-0.03 -0.059,-0.058 5e-4,-0.028 0.06,-0.032 0.06,-0.059 9e-4,-0.1559 -0.1586,0.04 9e-4,-0.1172 0.159,-0.1565 -6e-4,0.039 9e-4,-0.1172 5e-4,-0.028 0.06,-0.032 0.06,-0.059 5e-4,-0.028 -0.059,-0.03 -0.059,-0.058 5e-4,-0.028 0.051,-0.033 0.06,-0.059 0.012,-0.037 -0.012,-0.08 9e-4,-0.1172 0.01,-0.026 0.06,-0.032 0.06,-0.059 5e-4,-0.028 -0.059,-0.03 -0.059,-0.058 3e-4,-0.055 0.1192,-0.062 0.1194,-0.1175 5e-4,-0.028 -0.059,-0.03 -0.059,-0.058 5e-4,-0.028 0.06,-0.032 0.06,-0.059 5e-4,-0.028 -0.059,-0.03 -0.059,-0.058 3e-4,-0.055 0.1192,-0.062 0.1196,-0.1175 3e-4,-0.055 -0.1186,-0.061 -0.1183,-0.1163 8e-4,-0.059 0.1786,-0.1177 0.1789,-0.1762 6e-4,-0.028 -0.059,-0.03 -0.059,-0.058 3e-4,-0.055 0.1191,-0.062 0.1195,-0.1175 3e-4,-0.055 -0.1186,-0.061 -0.1182,-0.1164 3e-4,-0.055 0.1189,-0.062 0.1193,-0.1174 5e-4,-0.028 -0.059,-0.03 -0.059,-0.058 3e-4,-0.055 0.1191,-0.062 0.1194,-0.1175 6e-4,-0.028 -0.059,-0.03 -0.059,-0.058 2e-4,-0.028 0.2387,-0.2069 0.2388,-0.235 5e-4,-0.028 -0.059,-0.03 -0.059,-0.058 5e-4,-0.028 0.06,-0.032 0.06,-0.059 5e-4,-0.028 -0.059,-0.03 -0.059,-0.058 9e-4,-0.059 0.179,-0.1179 0.1793,-0.1763 5e-4,-0.028 -0.059,-0.03 -0.059,-0.058 5e-4,-0.028 0.06,-0.032 0.06,-0.059 6e-4,-0.028 -0.059,-0.03 -0.059,-0.058 3e-4,-0.028 0.2387,-0.2069 0.2389,-0.235 6e-4,-0.028 -0.059,-0.03 -0.059,-0.058 3e-4,-0.028 0.2387,-0.2068 0.2388,-0.2349 5e-4,-0.028 -0.059,-0.03 -0.059,-0.058 0,0 0.2168,-0.2133 0.2387,-0.2349 0.022,-0.022 0.2388,-0.2303 0.2388,-0.235 6e-4,-0.028 -0.059,-0.03 -0.059,-0.058 5e-4,-0.028 0.04,-0.039 0.06,-0.059 0.02,-0.02 0.04,-0.039 0.06,-0.059 0.1791,-0.1762 0.3583,-0.3524 0.5372,-0.5286 0.014,-0.014 0.1753,-0.1762 0.1792,-0.1762 0.029,-5e-4 0.031,0.059 0.059,0.058 0.056,-3e-4 0.064,-0.1172 0.1195,-0.1175 0.029,-5e-4 0.031,0.059 0.059,0.058 0.042,-2e-4 0.2368,-0.2732 0.2985,-0.2937 0.038,-0.013 0.082,0.012 0.1191,-9e-4 0.036,-0.012 0.1547,-0.176 0.179,-0.1761 0.029,-5e-4 0.031,0.059 0.059,0.058 0.029,-5e-4 0.04,-0.039 0.06,-0.059 0.021,-0.02 0.04,-0.039 0.06,-0.059 0.1194,-0.1175 0.2389,-0.2349 0.3583,-0.3524 0.028,-0.027 0.1698,-0.1495 0.1791,-0.1763 0.012,-0.036 -0.012,-0.08 9e-4,-0.1172 0.01,-0.027 0.1522,-0.1497 0.179,-0.1761 0.1593,-0.1567 0.3185,-0.3134 0.477599,-0.4698 0.1002,-0.098 0.1991,-0.1959 0.2986,-0.2938 0.021,-0.02 0.06,-0.032 0.06,-0.059 6e-4,-0.028 -0.059,-0.03 -0.059,-0.058 8e-4,-0.059 0.1789,-0.1178 0.1791,-0.1762 6e-4,-0.028 -0.059,-0.03 -0.059,-0.058 3e-4,-0.055 0.1191,-0.062 0.1194,-0.1174 6e-4,-0.028 -0.05,-0.032 -0.059,-0.058 -0.1218,-0.3643 0.063,0.062 0.06,-0.1756 5e-4,-0.028 -0.059,-0.03 -0.059,-0.058 3e-4,-0.055 0.1191,-0.062 0.1193,-0.1174 5e-4,-0.028 -0.05,-0.032 -0.059,-0.058 -0.012,-0.037 0.013,-0.08 9e-4,-0.1172 -0.01,-0.026 -0.08,-0.038 -0.059,-0.058 0.02,-0.02 0.079,0.078 0.059,0.058 -0.04,-0.039 -0.1002,-0.065 -0.1183,-0.1163 -0.018,-0.052 0.1192,-0.062 0.1193,-0.1175 6e-4,-0.028 -0.059,-0.03 -0.059,-0.058 5e-4,-0.028 0.06,-0.032 0.06,-0.059 6e-4,-0.028 -0.059,-0.03 -0.059,-0.058 0,-0.1552 0.1585,0.038 8e-4,-0.1172"
       id="path3761-4"
       inkscape:connector-curvature="0" />
    <path
       sodipodi:type="arc"
       style="fill:#ff2d00;fill-opacity:1;stroke:#ffffff;stroke-width:0.51095825;stroke-linecap:round;stroke-linejoin:miter;stroke-miterlimit:4;stroke-opacity:1;stroke-dasharray:none;stroke-dashoffset:0"
       id="path3795"
       sodipodi:cx="20.691563"
       sodipodi:cy="19.861687"
       sodipodi:rx="6.6390042"
       sodipodi:ry="6.251729"
       d="m 27.330567,19.861687 a 6.6390042,6.251729 0 1 1 -13.278009,0 6.6390042,6.251729 0 1 1 13.278009,0 z"
       transform="matrix(0.94171815,0,0,1.0000547,0.51437993,1012.4994)" />
  </g>
</svg>
