<?xml version="1.0" encoding="UTF-8" standalone="no"?>
<!-- Created with Inkscape (http://www.inkscape.org/) -->

<svg
   xmlns:dc="http://purl.org/dc/elements/1.1/"
   xmlns:cc="http://creativecommons.org/ns#"
   xmlns:rdf="http://www.w3.org/1999/02/22-rdf-syntax-ns#"
   xmlns:svg="http://www.w3.org/2000/svg"
   xmlns="http://www.w3.org/2000/svg"
   xmlns:sodipodi="http://sodipodi.sourceforge.net/DTD/sodipodi-0.dtd"
   xmlns:inkscape="http://www.inkscape.org/namespaces/inkscape"
   width="40"
   height="40"
   id="svg2"
   version="1.1"
   inkscape:version="0.48.1 "
   sodipodi:docname="pellet3.svg"
   inkscape:export-filename="C:\!Tower\pellet3.png"
   inkscape:export-xdpi="90"
   inkscape:export-ydpi="90">
  <defs
     id="defs4" />
  <sodipodi:namedview
     id="base"
     pagecolor="#ffffff"
     bordercolor="#666666"
     borderopacity="1.0"
     inkscape:pageopacity="0.0"
     inkscape:pageshadow="2"
     inkscape:zoom="18.075"
     inkscape:cx="20"
     inkscape:cy="20"
     inkscape:document-units="px"
     inkscape:current-layer="layer1"
     showgrid="false"
     inkscape:window-width="1432"
     inkscape:window-height="912"
     inkscape:window-x="-32000"
     inkscape:window-y="-32000"
     inkscape:window-maximized="0" />
  <metadata
     id="metadata7">
    <rdf:RDF>
      <cc:Work
         rdf:about="">
        <dc:format>image/svg+xml</dc:format>
        <dc:type
           rdf:resource="http://purl.org/dc/dcmitype/StillImage" />
        <dc:title></dc:title>
      </cc:Work>
    </rdf:RDF>
  </metadata>
  <g
     inkscape:label="Layer 1"
     inkscape:groupmode="layer"
     id="layer1"
     transform="translate(0,-1012.3622)">
    <path
       sodipodi:type="arc"
       style="fill:#6f4200;fill-opacity:1;stroke:none"
       id="path2985"
       sodipodi:cx="18.838175"
       sodipodi:cy="18.035961"
       sodipodi:rx="13.914247"
       sodipodi:ry="11.673582"
       d="m 32.752421,18.035961 a 13.914247,11.673582 0 1 1 -27.8284927,0 13.914247,11.673582 0 1 1 27.8284927,0 z"
       transform="matrix(1.4373757,0,0,1.7132686,-7.0775348,1001.4617)" />
    <path
       sodipodi:type="arc"
       style="fill:none;stroke:#b15800;stroke-width:0.99968183;stroke-miterlimit:4;stroke-opacity:1;stroke-dasharray:none"
       id="path3797"
       sodipodi:cx="22.295988"
       sodipodi:cy="23.319502"
       sodipodi:rx="10.069157"
       sodipodi:ry="9.0456429"
       d="m 32.365145,23.319502 a 10.069157,9.0456429 0 1 1 -20.138314,0 10.069157,9.0456429 0 1 1 20.138314,0 z"
       transform="matrix(0.94370619,0,0,1.0504865,-1.0408619,1007.8654)" />
    <path
       sodipodi:type="arc"
       style="fill:none;stroke:#b15800;stroke-width:0.66956866;stroke-miterlimit:4;stroke-opacity:1;stroke-dasharray:none"
       id="path3797-2"
       sodipodi:cx="22.295988"
       sodipodi:cy="23.319502"
       sodipodi:rx="10.069157"
       sodipodi:ry="9.0456429"
       d="m 32.365145,23.319502 a 10.069157,9.0456429 0 1 1 -20.138314,0 10.069157,9.0456429 0 1 1 20.138314,0 z"
       transform="matrix(1.4392115,0,0,1.6020581,-12.088642,995.003)" />
    <path
       sodipodi:type="arc"
       style="fill:none;stroke:#255800;stroke-width:0.66956866000000004;stroke-miterlimit:4;stroke-opacity:1;stroke-dasharray:none"
       id="path3797-2-9"
       sodipodi:cx="22.295988"
       sodipodi:cy="23.319502"
       sodipodi:rx="10.069157"
       sodipodi:ry="9.0456429"
       d="m 32.365145,23.319502 a 10.069157,9.0456429 0 1 1 -20.138314,0 10.069157,9.0456429 0 1 1 20.138314,0 z"
       transform="matrix(1.9189486,0,0,2.1360775,-22.784855,982.54994)" />
    <rect
       style="fill:#000000;fill-opacity:1;stroke:none"
       id="rect3763"
       width="16"
       height="3.9999964"
       x="6.9378189e-008"
       y="1030.3622" />
    <rect
       style="fill:#000000;fill-opacity:1;stroke:none"
       id="rect3763-3"
       width="16"
       height="3.9999964"
       x="24"
       y="1030.3622" />
    <rect
       style="fill:#000000;fill-opacity:1;stroke:none"
       id="rect3763-6"
       width="16"
       height="4"
       x="-1028.3622"
       y="18"
       transform="matrix(0,-1,1,0,0,0)" />
    <rect
       style="fill:#000000;fill-opacity:1;stroke:none"
       id="rect3763-5"
       width="16"
       height="4"
       x="-1052.3622"
       y="18"
       transform="matrix(0,-1,1,0,0,0)" />
    <path
       sodipodi:type="arc"
       style="fill:#255800;fill-opacity:1;stroke:none"
       id="path3761"
       sodipodi:cx="20"
       sodipodi:cy="20.414938"
       sodipodi:rx="3.7344398"
       sodipodi:ry="3.6514523"
       d="m 23.73444,20.414938 a 3.7344398,3.6514523 0 1 1 -7.46888,0 3.7344398,3.6514523 0 1 1 7.46888,0 z"
       transform="matrix(1.3388889,0,0,1.3693182,-6.7777779,1004.4077)" />
  </g>
</svg>
