<?xml version="1.0" encoding="UTF-8" standalone="no"?>
<!-- Created with Inkscape (http://www.inkscape.org/) -->

<svg
   xmlns:dc="http://purl.org/dc/elements/1.1/"
   xmlns:cc="http://creativecommons.org/ns#"
   xmlns:rdf="http://www.w3.org/1999/02/22-rdf-syntax-ns#"
   xmlns:svg="http://www.w3.org/2000/svg"
   xmlns="http://www.w3.org/2000/svg"
   xmlns:sodipodi="http://sodipodi.sourceforge.net/DTD/sodipodi-0.dtd"
   xmlns:inkscape="http://www.inkscape.org/namespaces/inkscape"
   width="40"
   height="40"
   id="svg2"
   version="1.1"
   inkscape:version="0.48.1 "
   sodipodi:docname="ice2.svg"
   inkscape:export-filename="C:\!Tower\ice3.png"
   inkscape:export-xdpi="90"
   inkscape:export-ydpi="90">
  <defs
     id="defs4" />
  <sodipodi:namedview
     id="base"
     pagecolor="#ffffff"
     bordercolor="#666666"
     borderopacity="1.0"
     inkscape:pageopacity="0.0"
     inkscape:pageshadow="2"
     inkscape:zoom="18.075"
     inkscape:cx="20"
     inkscape:cy="20"
     inkscape:document-units="px"
     inkscape:current-layer="layer1"
     showgrid="false"
     inkscape:window-width="1432"
     inkscape:window-height="912"
     inkscape:window-x="96"
     inkscape:window-y="38"
     inkscape:window-maximized="0" />
  <metadata
     id="metadata7">
    <rdf:RDF>
      <cc:Work
         rdf:about="">
        <dc:format>image/svg+xml</dc:format>
        <dc:type
           rdf:resource="http://purl.org/dc/dcmitype/StillImage" />
        <dc:title />
      </cc:Work>
    </rdf:RDF>
  </metadata>
  <g
     inkscape:label="Layer 1"
     inkscape:groupmode="layer"
     id="layer1"
     transform="translate(0,-1012.3622)">
    <path
       sodipodi:type="arc"
       style="fill:#1a1cff;fill-opacity:1;stroke:none"
       id="path2985"
       sodipodi:cx="18.838175"
       sodipodi:cy="18.035961"
       sodipodi:rx="13.914247"
       sodipodi:ry="11.673582"
       d="m 32.752421,18.035961 c 0,6.447142 -6.22962,11.673582 -13.914246,11.673582 -7.684626,0 -13.9142467,-5.22644 -13.9142467,-11.673582 0,-6.447141 6.2296207,-11.6735819 13.9142467,-11.6735819 7.684626,0 13.914246,5.2264409 13.914246,11.6735819 z"
       transform="matrix(1.4373757,0,0,1.7132702,-7.0775349,1001.4617)" />
    <rect
       style="fill:#1fd1ff;fill-opacity:1;stroke:none"
       id="rect3755"
       width="3.0923038"
       height="18.120899"
       x="-717.39435"
       y="724.46539"
       transform="matrix(0.70710678,-0.70710679,0.70710678,0.70710679,0,0)" />
    <rect
       style="fill:#1fd1ff;fill-opacity:1;stroke:none"
       id="rect3755-4"
       width="3.0923038"
       height="18.120899"
       x="-717.39429"
       y="745.67859"
       transform="matrix(0.70710678,-0.70710679,0.70710678,0.70710679,0,0)" />
    <rect
       style="fill:#1fd1ff;fill-opacity:1;stroke:none"
       id="rect3755-41"
       width="3.0923038"
       height="18.120899"
       x="-745.67865"
       y="-735.5152"
       transform="matrix(-0.70710678,-0.70710679,0.70710678,-0.70710679,0,0)" />
    <rect
       style="fill:#1fd1ff;fill-opacity:1;stroke:none"
       id="rect3755-6"
       width="3.0923038"
       height="18.120899"
       x="-745.67859"
       y="-714.302"
       transform="matrix(-0.70710678,-0.70710679,0.70710678,-0.70710679,0,0)" />
    <path
       sodipodi:type="arc"
       style="fill:#1fd1ff;fill-opacity:1;stroke:#1fd1ff;stroke-width:1.954;stroke-linecap:butt;stroke-linejoin:miter;stroke-miterlimit:4;stroke-opacity:1;stroke-dasharray:none;stroke-dashoffset:0"
       id="path3860"
       sodipodi:cx="8.6583681"
       sodipodi:cy="8.9073305"
       sodipodi:rx="5.2282157"
       sodipodi:ry="4.481328"
       d="m 13.886584,8.9073305 c 0,2.4749695 -2.340752,4.4813285 -5.2282159,4.4813285 -2.8874638,0 -5.2282157,-2.006359 -5.2282157,-4.4813285 0,-2.4749691 2.3407519,-4.481328 5.2282157,-4.481328 2.8874639,0 5.2282159,2.0063589 5.2282159,4.481328 z"
       transform="matrix(1.2731765,0,0,1.4853725,8.9763694,1019.1315)" />
    <path
       sodipodi:type="arc"
       style="fill:none;stroke:#424242;stroke-width:0.29086936;stroke-linecap:butt;stroke-linejoin:miter;stroke-miterlimit:4;stroke-opacity:1;stroke-dasharray:none;stroke-dashoffset:0"
       id="path3860-6"
       sodipodi:cx="8.6583681"
       sodipodi:cy="8.9073305"
       sodipodi:rx="5.2282157"
       sodipodi:ry="4.481328"
       d="m 13.886584,8.9073305 c 0,2.4749695 -2.340752,4.4813285 -5.2282159,4.4813285 -2.8874638,0 -5.2282157,-2.006359 -5.2282157,-4.4813285 0,-2.4749691 2.3407519,-4.481328 5.2282157,-4.481328 2.8874639,0 5.2282159,2.0063589 5.2282159,4.481328 z"
       transform="matrix(1.4855245,0,0,1.7331119,7.1377817,1016.9248)" />
  </g>
</svg>
